G04 #@! TF.GenerationSoftware,KiCad,Pcbnew,(6.0.4-0)*
G04 #@! TF.CreationDate,2022-04-02T13:17:35-04:00*
G04 #@! TF.ProjectId,3pdt,33706474-2e6b-4696-9361-645f70636258,rev?*
G04 #@! TF.SameCoordinates,Original*
G04 #@! TF.FileFunction,Legend,Bot*
G04 #@! TF.FilePolarity,Positive*
%FSLAX46Y46*%
G04 Gerber Fmt 4.6, Leading zero omitted, Abs format (unit mm)*
G04 Created by KiCad (PCBNEW (6.0.4-0)) date 2022-04-02 13:17:35*
%MOMM*%
%LPD*%
G01*
G04 APERTURE LIST*
%ADD10C,0.150000*%
%ADD11C,0.010000*%
G04 APERTURE END LIST*
D10*
X208559642Y-92847380D02*
X207940595Y-92847380D01*
X208273928Y-93228333D01*
X208131071Y-93228333D01*
X208035833Y-93275952D01*
X207988214Y-93323571D01*
X207940595Y-93418809D01*
X207940595Y-93656904D01*
X207988214Y-93752142D01*
X208035833Y-93799761D01*
X208131071Y-93847380D01*
X208416785Y-93847380D01*
X208512023Y-93799761D01*
X208559642Y-93752142D01*
X207512023Y-93180714D02*
X207512023Y-94180714D01*
X207512023Y-93228333D02*
X207416785Y-93180714D01*
X207226309Y-93180714D01*
X207131071Y-93228333D01*
X207083452Y-93275952D01*
X207035833Y-93371190D01*
X207035833Y-93656904D01*
X207083452Y-93752142D01*
X207131071Y-93799761D01*
X207226309Y-93847380D01*
X207416785Y-93847380D01*
X207512023Y-93799761D01*
X206178690Y-93847380D02*
X206178690Y-92847380D01*
X206178690Y-93799761D02*
X206273928Y-93847380D01*
X206464404Y-93847380D01*
X206559642Y-93799761D01*
X206607261Y-93752142D01*
X206654880Y-93656904D01*
X206654880Y-93371190D01*
X206607261Y-93275952D01*
X206559642Y-93228333D01*
X206464404Y-93180714D01*
X206273928Y-93180714D01*
X206178690Y-93228333D01*
X205845357Y-93180714D02*
X205464404Y-93180714D01*
X205702500Y-92847380D02*
X205702500Y-93704523D01*
X205654880Y-93799761D01*
X205559642Y-93847380D01*
X205464404Y-93847380D01*
X204369166Y-93847380D02*
X204369166Y-92847380D01*
X204369166Y-93228333D02*
X204273928Y-93180714D01*
X204083452Y-93180714D01*
X203988214Y-93228333D01*
X203940595Y-93275952D01*
X203892976Y-93371190D01*
X203892976Y-93656904D01*
X203940595Y-93752142D01*
X203988214Y-93799761D01*
X204083452Y-93847380D01*
X204273928Y-93847380D01*
X204369166Y-93799761D01*
X203464404Y-93847380D02*
X203464404Y-93180714D01*
X203464404Y-93371190D02*
X203416785Y-93275952D01*
X203369166Y-93228333D01*
X203273928Y-93180714D01*
X203178690Y-93180714D01*
X202464404Y-93799761D02*
X202559642Y-93847380D01*
X202750119Y-93847380D01*
X202845357Y-93799761D01*
X202892976Y-93704523D01*
X202892976Y-93323571D01*
X202845357Y-93228333D01*
X202750119Y-93180714D01*
X202559642Y-93180714D01*
X202464404Y-93228333D01*
X202416785Y-93323571D01*
X202416785Y-93418809D01*
X202892976Y-93514047D01*
X201559642Y-93847380D02*
X201559642Y-93323571D01*
X201607261Y-93228333D01*
X201702500Y-93180714D01*
X201892976Y-93180714D01*
X201988214Y-93228333D01*
X201559642Y-93799761D02*
X201654880Y-93847380D01*
X201892976Y-93847380D01*
X201988214Y-93799761D01*
X202035833Y-93704523D01*
X202035833Y-93609285D01*
X201988214Y-93514047D01*
X201892976Y-93466428D01*
X201654880Y-93466428D01*
X201559642Y-93418809D01*
X201083452Y-93847380D02*
X201083452Y-92847380D01*
X200988214Y-93466428D02*
X200702500Y-93847380D01*
X200702500Y-93180714D02*
X201083452Y-93561666D01*
X200131071Y-93847380D02*
X200226309Y-93799761D01*
X200273928Y-93752142D01*
X200321547Y-93656904D01*
X200321547Y-93371190D01*
X200273928Y-93275952D01*
X200226309Y-93228333D01*
X200131071Y-93180714D01*
X199988214Y-93180714D01*
X199892976Y-93228333D01*
X199845357Y-93275952D01*
X199797738Y-93371190D01*
X199797738Y-93656904D01*
X199845357Y-93752142D01*
X199892976Y-93799761D01*
X199988214Y-93847380D01*
X200131071Y-93847380D01*
X198940595Y-93180714D02*
X198940595Y-93847380D01*
X199369166Y-93180714D02*
X199369166Y-93704523D01*
X199321547Y-93799761D01*
X199226309Y-93847380D01*
X199083452Y-93847380D01*
X198988214Y-93799761D01*
X198940595Y-93752142D01*
X198607261Y-93180714D02*
X198226309Y-93180714D01*
X198464404Y-92847380D02*
X198464404Y-93704523D01*
X198416785Y-93799761D01*
X198321547Y-93847380D01*
X198226309Y-93847380D01*
X208607261Y-94790714D02*
X208226309Y-94790714D01*
X208464404Y-94457380D02*
X208464404Y-95314523D01*
X208416785Y-95409761D01*
X208321547Y-95457380D01*
X208226309Y-95457380D01*
X207512023Y-95409761D02*
X207607261Y-95457380D01*
X207797738Y-95457380D01*
X207892976Y-95409761D01*
X207940595Y-95314523D01*
X207940595Y-94933571D01*
X207892976Y-94838333D01*
X207797738Y-94790714D01*
X207607261Y-94790714D01*
X207512023Y-94838333D01*
X207464404Y-94933571D01*
X207464404Y-95028809D01*
X207940595Y-95124047D01*
X206607261Y-95409761D02*
X206702500Y-95457380D01*
X206892976Y-95457380D01*
X206988214Y-95409761D01*
X207035833Y-95362142D01*
X207083452Y-95266904D01*
X207083452Y-94981190D01*
X207035833Y-94885952D01*
X206988214Y-94838333D01*
X206892976Y-94790714D01*
X206702500Y-94790714D01*
X206607261Y-94838333D01*
X206178690Y-95457380D02*
X206178690Y-94457380D01*
X205750119Y-95457380D02*
X205750119Y-94933571D01*
X205797738Y-94838333D01*
X205892976Y-94790714D01*
X206035833Y-94790714D01*
X206131071Y-94838333D01*
X206178690Y-94885952D01*
X205273928Y-94790714D02*
X205273928Y-95457380D01*
X205273928Y-94885952D02*
X205226309Y-94838333D01*
X205131071Y-94790714D01*
X204988214Y-94790714D01*
X204892976Y-94838333D01*
X204845357Y-94933571D01*
X204845357Y-95457380D01*
X203988214Y-95409761D02*
X204083452Y-95457380D01*
X204273928Y-95457380D01*
X204369166Y-95409761D01*
X204416785Y-95314523D01*
X204416785Y-94933571D01*
X204369166Y-94838333D01*
X204273928Y-94790714D01*
X204083452Y-94790714D01*
X203988214Y-94838333D01*
X203940595Y-94933571D01*
X203940595Y-95028809D01*
X204416785Y-95124047D01*
X203512023Y-95362142D02*
X203464404Y-95409761D01*
X203512023Y-95457380D01*
X203559642Y-95409761D01*
X203512023Y-95362142D01*
X203512023Y-95457380D01*
X202892976Y-95457380D02*
X202988214Y-95409761D01*
X203035833Y-95362142D01*
X203083452Y-95266904D01*
X203083452Y-94981190D01*
X203035833Y-94885952D01*
X202988214Y-94838333D01*
X202892976Y-94790714D01*
X202750119Y-94790714D01*
X202654880Y-94838333D01*
X202607261Y-94885952D01*
X202559642Y-94981190D01*
X202559642Y-95266904D01*
X202607261Y-95362142D01*
X202654880Y-95409761D01*
X202750119Y-95457380D01*
X202892976Y-95457380D01*
X202131071Y-94790714D02*
X202131071Y-95457380D01*
X202131071Y-94885952D02*
X202083452Y-94838333D01*
X201988214Y-94790714D01*
X201845357Y-94790714D01*
X201750119Y-94838333D01*
X201702500Y-94933571D01*
X201702500Y-95457380D01*
X201083452Y-95457380D02*
X201178690Y-95409761D01*
X201226309Y-95314523D01*
X201226309Y-94457380D01*
X200702500Y-95457380D02*
X200702500Y-94790714D01*
X200702500Y-94457380D02*
X200750119Y-94505000D01*
X200702500Y-94552619D01*
X200654880Y-94505000D01*
X200702500Y-94457380D01*
X200702500Y-94552619D01*
X200226309Y-94790714D02*
X200226309Y-95457380D01*
X200226309Y-94885952D02*
X200178690Y-94838333D01*
X200083452Y-94790714D01*
X199940595Y-94790714D01*
X199845357Y-94838333D01*
X199797738Y-94933571D01*
X199797738Y-95457380D01*
X198940595Y-95409761D02*
X199035833Y-95457380D01*
X199226309Y-95457380D01*
X199321547Y-95409761D01*
X199369166Y-95314523D01*
X199369166Y-94933571D01*
X199321547Y-94838333D01*
X199226309Y-94790714D01*
X199035833Y-94790714D01*
X198940595Y-94838333D01*
X198892976Y-94933571D01*
X198892976Y-95028809D01*
X199369166Y-95124047D01*
G36*
X214718704Y-94798075D02*
G01*
X214718810Y-94888121D01*
X214718877Y-94979551D01*
X214718907Y-95071758D01*
X214718898Y-95164134D01*
X214718851Y-95256071D01*
X214718765Y-95346962D01*
X214718642Y-95436200D01*
X214718480Y-95523176D01*
X214718280Y-95607283D01*
X214718042Y-95687913D01*
X214717766Y-95764459D01*
X214717452Y-95836314D01*
X214717099Y-95902869D01*
X214716708Y-95963518D01*
X214716279Y-96017652D01*
X214715812Y-96064663D01*
X214715307Y-96103946D01*
X214714764Y-96134891D01*
X214714182Y-96156891D01*
X214713562Y-96169340D01*
X214710104Y-96205299D01*
X214691875Y-96330268D01*
X214664307Y-96451271D01*
X214627352Y-96568449D01*
X214580960Y-96681944D01*
X214525083Y-96791896D01*
X214459671Y-96898446D01*
X214447481Y-96916383D01*
X214373525Y-97014774D01*
X214292444Y-97106194D01*
X214204722Y-97190358D01*
X214110842Y-97266982D01*
X214011288Y-97335780D01*
X213906544Y-97396468D01*
X213797092Y-97448762D01*
X213683416Y-97492377D01*
X213566000Y-97527028D01*
X213445327Y-97552431D01*
X213321880Y-97568301D01*
X213315648Y-97568662D01*
X213297973Y-97569198D01*
X213271128Y-97569702D01*
X213235719Y-97570172D01*
X213192349Y-97570609D01*
X213141622Y-97571013D01*
X213084141Y-97571384D01*
X213020510Y-97571722D01*
X212951334Y-97572026D01*
X212877216Y-97572297D01*
X212798760Y-97572535D01*
X212716570Y-97572738D01*
X212631249Y-97572909D01*
X212543401Y-97573045D01*
X212453631Y-97573148D01*
X212362541Y-97573217D01*
X212270737Y-97573251D01*
X212178821Y-97573252D01*
X212087397Y-97573219D01*
X211997070Y-97573152D01*
X211908443Y-97573050D01*
X211822120Y-97572914D01*
X211738704Y-97572743D01*
X211658800Y-97572538D01*
X211583012Y-97572299D01*
X211511943Y-97572024D01*
X211446197Y-97571715D01*
X211386378Y-97571372D01*
X211333089Y-97570993D01*
X211286935Y-97570579D01*
X211248519Y-97570131D01*
X211218446Y-97569647D01*
X211197318Y-97569128D01*
X211185740Y-97568574D01*
X211133447Y-97563211D01*
X211011804Y-97544151D01*
X210893441Y-97516301D01*
X210779156Y-97479902D01*
X210669749Y-97435192D01*
X210566018Y-97382413D01*
X210545106Y-97370418D01*
X210438936Y-97302749D01*
X210339738Y-97227884D01*
X210247764Y-97146213D01*
X210163263Y-97058127D01*
X210086488Y-96964016D01*
X210017688Y-96864271D01*
X209957116Y-96759281D01*
X209905021Y-96649438D01*
X209861655Y-96535132D01*
X209827269Y-96416754D01*
X209802113Y-96294692D01*
X209786439Y-96169340D01*
X209786160Y-96165063D01*
X209785557Y-96148318D01*
X209785186Y-96131240D01*
X211537699Y-96131240D01*
X211540537Y-96142670D01*
X211541784Y-96148282D01*
X211545008Y-96163252D01*
X211549999Y-96186624D01*
X211556587Y-96217587D01*
X211564598Y-96255329D01*
X211573861Y-96299038D01*
X211584203Y-96347903D01*
X211595452Y-96401113D01*
X211607437Y-96457856D01*
X211619984Y-96517320D01*
X211631347Y-96571149D01*
X211643380Y-96628054D01*
X211654693Y-96681450D01*
X211665115Y-96730534D01*
X211674473Y-96774500D01*
X211682597Y-96812545D01*
X211689316Y-96843865D01*
X211694456Y-96867655D01*
X211697848Y-96883111D01*
X211699319Y-96889430D01*
X211699453Y-96889808D01*
X211700632Y-96891411D01*
X211703237Y-96892799D01*
X211707942Y-96893989D01*
X211715416Y-96894995D01*
X211726333Y-96895833D01*
X211741363Y-96896518D01*
X211761180Y-96897065D01*
X211786453Y-96897489D01*
X211817856Y-96897807D01*
X211856060Y-96898032D01*
X211901737Y-96898181D01*
X211955559Y-96898268D01*
X212018197Y-96898309D01*
X212090323Y-96898320D01*
X212100233Y-96898318D01*
X212161622Y-96898255D01*
X212219855Y-96898100D01*
X212274155Y-96897863D01*
X212323743Y-96897549D01*
X212367840Y-96897168D01*
X212405670Y-96896726D01*
X212436452Y-96896232D01*
X212459409Y-96895693D01*
X212473763Y-96895116D01*
X212478735Y-96894510D01*
X212478716Y-96894317D01*
X212477425Y-96887484D01*
X212474219Y-96871593D01*
X212469257Y-96847416D01*
X212462701Y-96815724D01*
X212454711Y-96777289D01*
X212445448Y-96732882D01*
X212435072Y-96683275D01*
X212423745Y-96629240D01*
X212411626Y-96571548D01*
X212398877Y-96510970D01*
X212318885Y-96131240D01*
X211537699Y-96131240D01*
X209785186Y-96131240D01*
X209784991Y-96122289D01*
X209784464Y-96087583D01*
X209783975Y-96044808D01*
X209783525Y-95994571D01*
X209783112Y-95937480D01*
X209782738Y-95874144D01*
X209782402Y-95805168D01*
X209782105Y-95731162D01*
X209781845Y-95652733D01*
X209781624Y-95570487D01*
X209781441Y-95485034D01*
X209781297Y-95396980D01*
X209781190Y-95306934D01*
X209781122Y-95215502D01*
X209781092Y-95123293D01*
X209781101Y-95030914D01*
X209781147Y-94938973D01*
X209781232Y-94848077D01*
X209781356Y-94758835D01*
X209781517Y-94671853D01*
X209781717Y-94587739D01*
X209781955Y-94507101D01*
X209782231Y-94430547D01*
X209782546Y-94358684D01*
X209782898Y-94292120D01*
X209783289Y-94231462D01*
X209783719Y-94177318D01*
X209784141Y-94134800D01*
X212343343Y-94134800D01*
X212398157Y-94392610D01*
X212402024Y-94410801D01*
X212412359Y-94459477D01*
X212421960Y-94504766D01*
X212430629Y-94545731D01*
X212438169Y-94581437D01*
X212444381Y-94610949D01*
X212449070Y-94633330D01*
X212452036Y-94647646D01*
X212453084Y-94652960D01*
X212455876Y-94653340D01*
X212467747Y-94653767D01*
X212487992Y-94654099D01*
X212515593Y-94654329D01*
X212549528Y-94654452D01*
X212588777Y-94654462D01*
X212632320Y-94654356D01*
X212679136Y-94654127D01*
X212905075Y-94652754D01*
X212907825Y-94664287D01*
X212907845Y-94664371D01*
X212910006Y-94673996D01*
X212914108Y-94692786D01*
X212920006Y-94720059D01*
X212927553Y-94755133D01*
X212936606Y-94797327D01*
X212947019Y-94845956D01*
X212958647Y-94900340D01*
X212971346Y-94959797D01*
X212984969Y-95023643D01*
X212999373Y-95091197D01*
X213014411Y-95161777D01*
X213029940Y-95234700D01*
X213045813Y-95309284D01*
X213061887Y-95384847D01*
X213078015Y-95460707D01*
X213094053Y-95536182D01*
X213109856Y-95610589D01*
X213125278Y-95683246D01*
X213140175Y-95753471D01*
X213154402Y-95820582D01*
X213167814Y-95883897D01*
X213180265Y-95942733D01*
X213191610Y-95996408D01*
X213201705Y-96044240D01*
X213210405Y-96085547D01*
X213217564Y-96119647D01*
X213223037Y-96145857D01*
X213226680Y-96163495D01*
X213228347Y-96171880D01*
X213228453Y-96172477D01*
X213232351Y-96200055D01*
X213235234Y-96230826D01*
X213236485Y-96258240D01*
X213236503Y-96267672D01*
X213235511Y-96291031D01*
X213232356Y-96310588D01*
X213226239Y-96326696D01*
X213216361Y-96339706D01*
X213201923Y-96349972D01*
X213182125Y-96357846D01*
X213156167Y-96363682D01*
X213123251Y-96367830D01*
X213082576Y-96370644D01*
X213033345Y-96372477D01*
X212974756Y-96373681D01*
X212818131Y-96376164D01*
X212820827Y-96387052D01*
X212821201Y-96388660D01*
X212823557Y-96399257D01*
X212827764Y-96418436D01*
X212833612Y-96445230D01*
X212840890Y-96478671D01*
X212849388Y-96517792D01*
X212858896Y-96561625D01*
X212869202Y-96609203D01*
X212880098Y-96659560D01*
X212884833Y-96681444D01*
X212895393Y-96730164D01*
X212905220Y-96775380D01*
X212914111Y-96816173D01*
X212921867Y-96851626D01*
X212928285Y-96880820D01*
X212931320Y-96894510D01*
X212933165Y-96902837D01*
X212936306Y-96916759D01*
X212937507Y-96921667D01*
X212941415Y-96921891D01*
X212954413Y-96922425D01*
X212975400Y-96923214D01*
X213003223Y-96924217D01*
X213036725Y-96925392D01*
X213074749Y-96926698D01*
X213116140Y-96928094D01*
X213157034Y-96929357D01*
X213214217Y-96930804D01*
X213270735Y-96931889D01*
X213325235Y-96932604D01*
X213376359Y-96932944D01*
X213422753Y-96932898D01*
X213463061Y-96932461D01*
X213495929Y-96931624D01*
X213520000Y-96930379D01*
X213563042Y-96926094D01*
X213619689Y-96917643D01*
X213675652Y-96906391D01*
X213728567Y-96892889D01*
X213776070Y-96877690D01*
X213815794Y-96861345D01*
X213849350Y-96844013D01*
X213895705Y-96814043D01*
X213933457Y-96780632D01*
X213963459Y-96742823D01*
X213986562Y-96699659D01*
X214003617Y-96650182D01*
X214009675Y-96618982D01*
X214013375Y-96579888D01*
X214014577Y-96535960D01*
X214013285Y-96489729D01*
X214009502Y-96443725D01*
X214003233Y-96400480D01*
X214001019Y-96389205D01*
X213996796Y-96368543D01*
X213990685Y-96339064D01*
X213982803Y-96301328D01*
X213973269Y-96255894D01*
X213962201Y-96203323D01*
X213949719Y-96144173D01*
X213935939Y-96079005D01*
X213920981Y-96008378D01*
X213904963Y-95932852D01*
X213888003Y-95852986D01*
X213870219Y-95769340D01*
X213851730Y-95682474D01*
X213832654Y-95592947D01*
X213813109Y-95501320D01*
X213633681Y-94660580D01*
X213825761Y-94659249D01*
X213869305Y-94658928D01*
X213910556Y-94658547D01*
X213943416Y-94658105D01*
X213968829Y-94657551D01*
X213987739Y-94656836D01*
X214001091Y-94655909D01*
X214009830Y-94654721D01*
X214014901Y-94653222D01*
X214017248Y-94651361D01*
X214017815Y-94649089D01*
X214017760Y-94648435D01*
X214016272Y-94639747D01*
X214012903Y-94622325D01*
X214007855Y-94597150D01*
X214001330Y-94565203D01*
X213993528Y-94527462D01*
X213984651Y-94484909D01*
X213974900Y-94438523D01*
X213964475Y-94389284D01*
X213961812Y-94376744D01*
X213951568Y-94328472D01*
X213942044Y-94283524D01*
X213933438Y-94242845D01*
X213925949Y-94207380D01*
X213919778Y-94178074D01*
X213915123Y-94155871D01*
X213912184Y-94141716D01*
X213911160Y-94136554D01*
X213910978Y-94136477D01*
X213904271Y-94136092D01*
X213888713Y-94135738D01*
X213865402Y-94135427D01*
X213835437Y-94135167D01*
X213799917Y-94134970D01*
X213759942Y-94134844D01*
X213716609Y-94134800D01*
X213522058Y-94134800D01*
X213441456Y-93757610D01*
X213440269Y-93752054D01*
X213427370Y-93691678D01*
X213415069Y-93634089D01*
X213403537Y-93580079D01*
X213392942Y-93530444D01*
X213383454Y-93485979D01*
X213375243Y-93447476D01*
X213368478Y-93415732D01*
X213363329Y-93391539D01*
X213359965Y-93375694D01*
X213358555Y-93368990D01*
X213356256Y-93357560D01*
X212629730Y-93357560D01*
X212632568Y-93371530D01*
X212634030Y-93378479D01*
X212637454Y-93394602D01*
X212642661Y-93419055D01*
X212649476Y-93451026D01*
X212657728Y-93489705D01*
X212667244Y-93534282D01*
X212677850Y-93583948D01*
X212689374Y-93637892D01*
X212701643Y-93695304D01*
X212714483Y-93755375D01*
X212714639Y-93756103D01*
X212727400Y-93815856D01*
X212739521Y-93872731D01*
X212750835Y-93925944D01*
X212761178Y-93974709D01*
X212770383Y-94018245D01*
X212778286Y-94055765D01*
X212784720Y-94086488D01*
X212789521Y-94109628D01*
X212792523Y-94124401D01*
X212793560Y-94130025D01*
X212793338Y-94130276D01*
X212786311Y-94131397D01*
X212769879Y-94132381D01*
X212744665Y-94133217D01*
X212711291Y-94133889D01*
X212670383Y-94134386D01*
X212622562Y-94134694D01*
X212568452Y-94134800D01*
X212343343Y-94134800D01*
X209784141Y-94134800D01*
X209784186Y-94130297D01*
X209784692Y-94091004D01*
X209785236Y-94060049D01*
X209785818Y-94038038D01*
X209786439Y-94025580D01*
X209788976Y-93998511D01*
X209806473Y-93874247D01*
X209833214Y-93753409D01*
X209869063Y-93636449D01*
X209913888Y-93523821D01*
X209967551Y-93415980D01*
X209987070Y-93381578D01*
X210054369Y-93276098D01*
X210128928Y-93177487D01*
X210210345Y-93086006D01*
X210298221Y-93001913D01*
X210392156Y-92925468D01*
X210491750Y-92856930D01*
X210596602Y-92796559D01*
X210706313Y-92744614D01*
X210820482Y-92701354D01*
X210938710Y-92667038D01*
X211060596Y-92641926D01*
X211185740Y-92626278D01*
X211188516Y-92626083D01*
X211203994Y-92625472D01*
X211228835Y-92624899D01*
X211262429Y-92624365D01*
X211304166Y-92623870D01*
X211353435Y-92623413D01*
X211409627Y-92622995D01*
X211472131Y-92622615D01*
X211540338Y-92622274D01*
X211613637Y-92621971D01*
X211691418Y-92621707D01*
X211773071Y-92621482D01*
X211857986Y-92621295D01*
X211945553Y-92621147D01*
X212035162Y-92621037D01*
X212126202Y-92620966D01*
X212218065Y-92620933D01*
X212310139Y-92620939D01*
X212401814Y-92620983D01*
X212492480Y-92621067D01*
X212581528Y-92621188D01*
X212668348Y-92621348D01*
X212752328Y-92621547D01*
X212832859Y-92621784D01*
X212909332Y-92622060D01*
X212981135Y-92622374D01*
X213047659Y-92622727D01*
X213108293Y-92623119D01*
X213162429Y-92623549D01*
X213209454Y-92624018D01*
X213248760Y-92624525D01*
X213279737Y-92625071D01*
X213301774Y-92625655D01*
X213314260Y-92626278D01*
X213359846Y-92630788D01*
X213484406Y-92649655D01*
X213604836Y-92677783D01*
X213721289Y-92715226D01*
X213833919Y-92762036D01*
X213942878Y-92818268D01*
X214048320Y-92883976D01*
X214058724Y-92891103D01*
X214158734Y-92966227D01*
X214251333Y-93048129D01*
X214336293Y-93136418D01*
X214413387Y-93230700D01*
X214482385Y-93330585D01*
X214543059Y-93435680D01*
X214595181Y-93545592D01*
X214638521Y-93659931D01*
X214672853Y-93778303D01*
X214697946Y-93900316D01*
X214713573Y-94025580D01*
X214713852Y-94029876D01*
X214714455Y-94046639D01*
X214715019Y-94072685D01*
X214715545Y-94107405D01*
X214716033Y-94150194D01*
X214716483Y-94200442D01*
X214716894Y-94257542D01*
X214717268Y-94320888D01*
X214717603Y-94389870D01*
X214717899Y-94463882D01*
X214718158Y-94542316D01*
X214718378Y-94624565D01*
X214718431Y-94649089D01*
X214718560Y-94710020D01*
X214718704Y-94798075D01*
G37*
D11*
X214718704Y-94798075D02*
X214718810Y-94888121D01*
X214718877Y-94979551D01*
X214718907Y-95071758D01*
X214718898Y-95164134D01*
X214718851Y-95256071D01*
X214718765Y-95346962D01*
X214718642Y-95436200D01*
X214718480Y-95523176D01*
X214718280Y-95607283D01*
X214718042Y-95687913D01*
X214717766Y-95764459D01*
X214717452Y-95836314D01*
X214717099Y-95902869D01*
X214716708Y-95963518D01*
X214716279Y-96017652D01*
X214715812Y-96064663D01*
X214715307Y-96103946D01*
X214714764Y-96134891D01*
X214714182Y-96156891D01*
X214713562Y-96169340D01*
X214710104Y-96205299D01*
X214691875Y-96330268D01*
X214664307Y-96451271D01*
X214627352Y-96568449D01*
X214580960Y-96681944D01*
X214525083Y-96791896D01*
X214459671Y-96898446D01*
X214447481Y-96916383D01*
X214373525Y-97014774D01*
X214292444Y-97106194D01*
X214204722Y-97190358D01*
X214110842Y-97266982D01*
X214011288Y-97335780D01*
X213906544Y-97396468D01*
X213797092Y-97448762D01*
X213683416Y-97492377D01*
X213566000Y-97527028D01*
X213445327Y-97552431D01*
X213321880Y-97568301D01*
X213315648Y-97568662D01*
X213297973Y-97569198D01*
X213271128Y-97569702D01*
X213235719Y-97570172D01*
X213192349Y-97570609D01*
X213141622Y-97571013D01*
X213084141Y-97571384D01*
X213020510Y-97571722D01*
X212951334Y-97572026D01*
X212877216Y-97572297D01*
X212798760Y-97572535D01*
X212716570Y-97572738D01*
X212631249Y-97572909D01*
X212543401Y-97573045D01*
X212453631Y-97573148D01*
X212362541Y-97573217D01*
X212270737Y-97573251D01*
X212178821Y-97573252D01*
X212087397Y-97573219D01*
X211997070Y-97573152D01*
X211908443Y-97573050D01*
X211822120Y-97572914D01*
X211738704Y-97572743D01*
X211658800Y-97572538D01*
X211583012Y-97572299D01*
X211511943Y-97572024D01*
X211446197Y-97571715D01*
X211386378Y-97571372D01*
X211333089Y-97570993D01*
X211286935Y-97570579D01*
X211248519Y-97570131D01*
X211218446Y-97569647D01*
X211197318Y-97569128D01*
X211185740Y-97568574D01*
X211133447Y-97563211D01*
X211011804Y-97544151D01*
X210893441Y-97516301D01*
X210779156Y-97479902D01*
X210669749Y-97435192D01*
X210566018Y-97382413D01*
X210545106Y-97370418D01*
X210438936Y-97302749D01*
X210339738Y-97227884D01*
X210247764Y-97146213D01*
X210163263Y-97058127D01*
X210086488Y-96964016D01*
X210017688Y-96864271D01*
X209957116Y-96759281D01*
X209905021Y-96649438D01*
X209861655Y-96535132D01*
X209827269Y-96416754D01*
X209802113Y-96294692D01*
X209786439Y-96169340D01*
X209786160Y-96165063D01*
X209785557Y-96148318D01*
X209785186Y-96131240D01*
X211537699Y-96131240D01*
X211540537Y-96142670D01*
X211541784Y-96148282D01*
X211545008Y-96163252D01*
X211549999Y-96186624D01*
X211556587Y-96217587D01*
X211564598Y-96255329D01*
X211573861Y-96299038D01*
X211584203Y-96347903D01*
X211595452Y-96401113D01*
X211607437Y-96457856D01*
X211619984Y-96517320D01*
X211631347Y-96571149D01*
X211643380Y-96628054D01*
X211654693Y-96681450D01*
X211665115Y-96730534D01*
X211674473Y-96774500D01*
X211682597Y-96812545D01*
X211689316Y-96843865D01*
X211694456Y-96867655D01*
X211697848Y-96883111D01*
X211699319Y-96889430D01*
X211699453Y-96889808D01*
X211700632Y-96891411D01*
X211703237Y-96892799D01*
X211707942Y-96893989D01*
X211715416Y-96894995D01*
X211726333Y-96895833D01*
X211741363Y-96896518D01*
X211761180Y-96897065D01*
X211786453Y-96897489D01*
X211817856Y-96897807D01*
X211856060Y-96898032D01*
X211901737Y-96898181D01*
X211955559Y-96898268D01*
X212018197Y-96898309D01*
X212090323Y-96898320D01*
X212100233Y-96898318D01*
X212161622Y-96898255D01*
X212219855Y-96898100D01*
X212274155Y-96897863D01*
X212323743Y-96897549D01*
X212367840Y-96897168D01*
X212405670Y-96896726D01*
X212436452Y-96896232D01*
X212459409Y-96895693D01*
X212473763Y-96895116D01*
X212478735Y-96894510D01*
X212478716Y-96894317D01*
X212477425Y-96887484D01*
X212474219Y-96871593D01*
X212469257Y-96847416D01*
X212462701Y-96815724D01*
X212454711Y-96777289D01*
X212445448Y-96732882D01*
X212435072Y-96683275D01*
X212423745Y-96629240D01*
X212411626Y-96571548D01*
X212398877Y-96510970D01*
X212318885Y-96131240D01*
X211537699Y-96131240D01*
X209785186Y-96131240D01*
X209784991Y-96122289D01*
X209784464Y-96087583D01*
X209783975Y-96044808D01*
X209783525Y-95994571D01*
X209783112Y-95937480D01*
X209782738Y-95874144D01*
X209782402Y-95805168D01*
X209782105Y-95731162D01*
X209781845Y-95652733D01*
X209781624Y-95570487D01*
X209781441Y-95485034D01*
X209781297Y-95396980D01*
X209781190Y-95306934D01*
X209781122Y-95215502D01*
X209781092Y-95123293D01*
X209781101Y-95030914D01*
X209781147Y-94938973D01*
X209781232Y-94848077D01*
X209781356Y-94758835D01*
X209781517Y-94671853D01*
X209781717Y-94587739D01*
X209781955Y-94507101D01*
X209782231Y-94430547D01*
X209782546Y-94358684D01*
X209782898Y-94292120D01*
X209783289Y-94231462D01*
X209783719Y-94177318D01*
X209784141Y-94134800D01*
X212343343Y-94134800D01*
X212398157Y-94392610D01*
X212402024Y-94410801D01*
X212412359Y-94459477D01*
X212421960Y-94504766D01*
X212430629Y-94545731D01*
X212438169Y-94581437D01*
X212444381Y-94610949D01*
X212449070Y-94633330D01*
X212452036Y-94647646D01*
X212453084Y-94652960D01*
X212455876Y-94653340D01*
X212467747Y-94653767D01*
X212487992Y-94654099D01*
X212515593Y-94654329D01*
X212549528Y-94654452D01*
X212588777Y-94654462D01*
X212632320Y-94654356D01*
X212679136Y-94654127D01*
X212905075Y-94652754D01*
X212907825Y-94664287D01*
X212907845Y-94664371D01*
X212910006Y-94673996D01*
X212914108Y-94692786D01*
X212920006Y-94720059D01*
X212927553Y-94755133D01*
X212936606Y-94797327D01*
X212947019Y-94845956D01*
X212958647Y-94900340D01*
X212971346Y-94959797D01*
X212984969Y-95023643D01*
X212999373Y-95091197D01*
X213014411Y-95161777D01*
X213029940Y-95234700D01*
X213045813Y-95309284D01*
X213061887Y-95384847D01*
X213078015Y-95460707D01*
X213094053Y-95536182D01*
X213109856Y-95610589D01*
X213125278Y-95683246D01*
X213140175Y-95753471D01*
X213154402Y-95820582D01*
X213167814Y-95883897D01*
X213180265Y-95942733D01*
X213191610Y-95996408D01*
X213201705Y-96044240D01*
X213210405Y-96085547D01*
X213217564Y-96119647D01*
X213223037Y-96145857D01*
X213226680Y-96163495D01*
X213228347Y-96171880D01*
X213228453Y-96172477D01*
X213232351Y-96200055D01*
X213235234Y-96230826D01*
X213236485Y-96258240D01*
X213236503Y-96267672D01*
X213235511Y-96291031D01*
X213232356Y-96310588D01*
X213226239Y-96326696D01*
X213216361Y-96339706D01*
X213201923Y-96349972D01*
X213182125Y-96357846D01*
X213156167Y-96363682D01*
X213123251Y-96367830D01*
X213082576Y-96370644D01*
X213033345Y-96372477D01*
X212974756Y-96373681D01*
X212818131Y-96376164D01*
X212820827Y-96387052D01*
X212821201Y-96388660D01*
X212823557Y-96399257D01*
X212827764Y-96418436D01*
X212833612Y-96445230D01*
X212840890Y-96478671D01*
X212849388Y-96517792D01*
X212858896Y-96561625D01*
X212869202Y-96609203D01*
X212880098Y-96659560D01*
X212884833Y-96681444D01*
X212895393Y-96730164D01*
X212905220Y-96775380D01*
X212914111Y-96816173D01*
X212921867Y-96851626D01*
X212928285Y-96880820D01*
X212931320Y-96894510D01*
X212933165Y-96902837D01*
X212936306Y-96916759D01*
X212937507Y-96921667D01*
X212941415Y-96921891D01*
X212954413Y-96922425D01*
X212975400Y-96923214D01*
X213003223Y-96924217D01*
X213036725Y-96925392D01*
X213074749Y-96926698D01*
X213116140Y-96928094D01*
X213157034Y-96929357D01*
X213214217Y-96930804D01*
X213270735Y-96931889D01*
X213325235Y-96932604D01*
X213376359Y-96932944D01*
X213422753Y-96932898D01*
X213463061Y-96932461D01*
X213495929Y-96931624D01*
X213520000Y-96930379D01*
X213563042Y-96926094D01*
X213619689Y-96917643D01*
X213675652Y-96906391D01*
X213728567Y-96892889D01*
X213776070Y-96877690D01*
X213815794Y-96861345D01*
X213849350Y-96844013D01*
X213895705Y-96814043D01*
X213933457Y-96780632D01*
X213963459Y-96742823D01*
X213986562Y-96699659D01*
X214003617Y-96650182D01*
X214009675Y-96618982D01*
X214013375Y-96579888D01*
X214014577Y-96535960D01*
X214013285Y-96489729D01*
X214009502Y-96443725D01*
X214003233Y-96400480D01*
X214001019Y-96389205D01*
X213996796Y-96368543D01*
X213990685Y-96339064D01*
X213982803Y-96301328D01*
X213973269Y-96255894D01*
X213962201Y-96203323D01*
X213949719Y-96144173D01*
X213935939Y-96079005D01*
X213920981Y-96008378D01*
X213904963Y-95932852D01*
X213888003Y-95852986D01*
X213870219Y-95769340D01*
X213851730Y-95682474D01*
X213832654Y-95592947D01*
X213813109Y-95501320D01*
X213633681Y-94660580D01*
X213825761Y-94659249D01*
X213869305Y-94658928D01*
X213910556Y-94658547D01*
X213943416Y-94658105D01*
X213968829Y-94657551D01*
X213987739Y-94656836D01*
X214001091Y-94655909D01*
X214009830Y-94654721D01*
X214014901Y-94653222D01*
X214017248Y-94651361D01*
X214017815Y-94649089D01*
X214017760Y-94648435D01*
X214016272Y-94639747D01*
X214012903Y-94622325D01*
X214007855Y-94597150D01*
X214001330Y-94565203D01*
X213993528Y-94527462D01*
X213984651Y-94484909D01*
X213974900Y-94438523D01*
X213964475Y-94389284D01*
X213961812Y-94376744D01*
X213951568Y-94328472D01*
X213942044Y-94283524D01*
X213933438Y-94242845D01*
X213925949Y-94207380D01*
X213919778Y-94178074D01*
X213915123Y-94155871D01*
X213912184Y-94141716D01*
X213911160Y-94136554D01*
X213910978Y-94136477D01*
X213904271Y-94136092D01*
X213888713Y-94135738D01*
X213865402Y-94135427D01*
X213835437Y-94135167D01*
X213799917Y-94134970D01*
X213759942Y-94134844D01*
X213716609Y-94134800D01*
X213522058Y-94134800D01*
X213441456Y-93757610D01*
X213440269Y-93752054D01*
X213427370Y-93691678D01*
X213415069Y-93634089D01*
X213403537Y-93580079D01*
X213392942Y-93530444D01*
X213383454Y-93485979D01*
X213375243Y-93447476D01*
X213368478Y-93415732D01*
X213363329Y-93391539D01*
X213359965Y-93375694D01*
X213358555Y-93368990D01*
X213356256Y-93357560D01*
X212629730Y-93357560D01*
X212632568Y-93371530D01*
X212634030Y-93378479D01*
X212637454Y-93394602D01*
X212642661Y-93419055D01*
X212649476Y-93451026D01*
X212657728Y-93489705D01*
X212667244Y-93534282D01*
X212677850Y-93583948D01*
X212689374Y-93637892D01*
X212701643Y-93695304D01*
X212714483Y-93755375D01*
X212714639Y-93756103D01*
X212727400Y-93815856D01*
X212739521Y-93872731D01*
X212750835Y-93925944D01*
X212761178Y-93974709D01*
X212770383Y-94018245D01*
X212778286Y-94055765D01*
X212784720Y-94086488D01*
X212789521Y-94109628D01*
X212792523Y-94124401D01*
X212793560Y-94130025D01*
X212793338Y-94130276D01*
X212786311Y-94131397D01*
X212769879Y-94132381D01*
X212744665Y-94133217D01*
X212711291Y-94133889D01*
X212670383Y-94134386D01*
X212622562Y-94134694D01*
X212568452Y-94134800D01*
X212343343Y-94134800D01*
X209784141Y-94134800D01*
X209784186Y-94130297D01*
X209784692Y-94091004D01*
X209785236Y-94060049D01*
X209785818Y-94038038D01*
X209786439Y-94025580D01*
X209788976Y-93998511D01*
X209806473Y-93874247D01*
X209833214Y-93753409D01*
X209869063Y-93636449D01*
X209913888Y-93523821D01*
X209967551Y-93415980D01*
X209987070Y-93381578D01*
X210054369Y-93276098D01*
X210128928Y-93177487D01*
X210210345Y-93086006D01*
X210298221Y-93001913D01*
X210392156Y-92925468D01*
X210491750Y-92856930D01*
X210596602Y-92796559D01*
X210706313Y-92744614D01*
X210820482Y-92701354D01*
X210938710Y-92667038D01*
X211060596Y-92641926D01*
X211185740Y-92626278D01*
X211188516Y-92626083D01*
X211203994Y-92625472D01*
X211228835Y-92624899D01*
X211262429Y-92624365D01*
X211304166Y-92623870D01*
X211353435Y-92623413D01*
X211409627Y-92622995D01*
X211472131Y-92622615D01*
X211540338Y-92622274D01*
X211613637Y-92621971D01*
X211691418Y-92621707D01*
X211773071Y-92621482D01*
X211857986Y-92621295D01*
X211945553Y-92621147D01*
X212035162Y-92621037D01*
X212126202Y-92620966D01*
X212218065Y-92620933D01*
X212310139Y-92620939D01*
X212401814Y-92620983D01*
X212492480Y-92621067D01*
X212581528Y-92621188D01*
X212668348Y-92621348D01*
X212752328Y-92621547D01*
X212832859Y-92621784D01*
X212909332Y-92622060D01*
X212981135Y-92622374D01*
X213047659Y-92622727D01*
X213108293Y-92623119D01*
X213162429Y-92623549D01*
X213209454Y-92624018D01*
X213248760Y-92624525D01*
X213279737Y-92625071D01*
X213301774Y-92625655D01*
X213314260Y-92626278D01*
X213359846Y-92630788D01*
X213484406Y-92649655D01*
X213604836Y-92677783D01*
X213721289Y-92715226D01*
X213833919Y-92762036D01*
X213942878Y-92818268D01*
X214048320Y-92883976D01*
X214058724Y-92891103D01*
X214158734Y-92966227D01*
X214251333Y-93048129D01*
X214336293Y-93136418D01*
X214413387Y-93230700D01*
X214482385Y-93330585D01*
X214543059Y-93435680D01*
X214595181Y-93545592D01*
X214638521Y-93659931D01*
X214672853Y-93778303D01*
X214697946Y-93900316D01*
X214713573Y-94025580D01*
X214713852Y-94029876D01*
X214714455Y-94046639D01*
X214715019Y-94072685D01*
X214715545Y-94107405D01*
X214716033Y-94150194D01*
X214716483Y-94200442D01*
X214716894Y-94257542D01*
X214717268Y-94320888D01*
X214717603Y-94389870D01*
X214717899Y-94463882D01*
X214718158Y-94542316D01*
X214718378Y-94624565D01*
X214718431Y-94649089D01*
X214718560Y-94710020D01*
X214718704Y-94798075D01*
M02*
