G04 #@! TF.GenerationSoftware,KiCad,Pcbnew,(6.0.4-0)*
G04 #@! TF.CreationDate,2022-04-02T13:17:34-04:00*
G04 #@! TF.ProjectId,3pdt,33706474-2e6b-4696-9361-645f70636258,rev?*
G04 #@! TF.SameCoordinates,Original*
G04 #@! TF.FileFunction,Copper,L1,Top*
G04 #@! TF.FilePolarity,Positive*
%FSLAX46Y46*%
G04 Gerber Fmt 4.6, Leading zero omitted, Abs format (unit mm)*
G04 Created by KiCad (PCBNEW (6.0.4-0)) date 2022-04-02 13:17:34*
%MOMM*%
%LPD*%
G01*
G04 APERTURE LIST*
G04 #@! TA.AperFunction,ComponentPad*
%ADD10R,1.800000X1.800000*%
G04 #@! TD*
G04 #@! TA.AperFunction,ComponentPad*
%ADD11C,1.800000*%
G04 #@! TD*
G04 #@! TA.AperFunction,ComponentPad*
%ADD12C,1.879600*%
G04 #@! TD*
G04 #@! TA.AperFunction,ComponentPad*
%ADD13C,1.600000*%
G04 #@! TD*
G04 #@! TA.AperFunction,ComponentPad*
%ADD14O,1.600000X1.600000*%
G04 #@! TD*
G04 #@! TA.AperFunction,ComponentPad*
%ADD15C,2.800000*%
G04 #@! TD*
G04 #@! TA.AperFunction,Conductor*
%ADD16C,0.250000*%
G04 #@! TD*
G04 APERTURE END LIST*
D10*
X192250000Y-112000000D03*
D11*
X192250000Y-109460000D03*
D12*
X199644000Y-90551000D03*
X202184000Y-90551000D03*
X204724000Y-90551000D03*
X207264000Y-90551000D03*
X209804000Y-90551000D03*
X212344000Y-90551000D03*
D13*
X192250000Y-95250000D03*
D14*
X192250000Y-105410000D03*
D15*
X200701560Y-99951940D03*
X200701560Y-104750000D03*
X200701560Y-109548060D03*
X206000000Y-99951940D03*
X206000000Y-104750000D03*
X206000000Y-109548060D03*
X211298440Y-99951940D03*
X211298440Y-104750000D03*
X211298440Y-109548060D03*
D16*
X192250000Y-109460000D02*
X192250000Y-105410000D01*
X198249620Y-112000000D02*
X192250000Y-112000000D01*
X200701560Y-109548060D02*
X198249620Y-112000000D01*
X212344000Y-90594000D02*
X214000000Y-92250000D01*
X214000000Y-102048440D02*
X211298440Y-104750000D01*
X214000000Y-92250000D02*
X214000000Y-102048440D01*
X212344000Y-90551000D02*
X212344000Y-90594000D01*
X209804000Y-90551000D02*
X209804000Y-98457500D01*
X209804000Y-98457500D02*
X211298440Y-99951940D01*
X202184000Y-90551000D02*
X206000000Y-94367000D01*
X206000000Y-94367000D02*
X206000000Y-99951940D01*
X203500000Y-102250000D02*
X206000000Y-104750000D01*
X199644000Y-90551000D02*
X203500000Y-94407000D01*
X203500000Y-94407000D02*
X203500000Y-102250000D01*
X194750000Y-104750000D02*
X200701560Y-104750000D01*
X192250000Y-95250000D02*
X192250000Y-102250000D01*
X192250000Y-102250000D02*
X194750000Y-104750000D01*
X206000000Y-109548060D02*
X211298440Y-109548060D01*
M02*
